<svg width="1080" height="208" viewBox="0 0 1080 208" fill="none" xmlns="http://www.w3.org/2000/svg">
<path d="M930.784 111.109L898.605 54.9365H938.728L956.222 85.5909L986.877 54.9365H1027L970.907 111.109L1003.09 167.282H962.963L945.389 136.628L914.815 167.282H874.691L930.784 111.109Z" fill="white"/>
<path d="M894.593 54.9365L863.698 87.0353H759.377L766.198 54.9365H894.593ZM886.006 95.06L855.111 127.159H750.79L757.611 95.06H886.006ZM877.5 135.183L846.605 167.282H742.284L749.105 135.183H877.5Z" fill="white"/>
<path d="M614.932 87.0353L645.827 54.9365H718.049C744.798 54.9365 755.311 68.311 749.587 95.06C743.916 121.809 727.706 135.183 700.957 135.183H644.784L637.963 167.282H605.864L619.506 103.085H707.778C713.128 103.085 716.364 100.41 717.488 95.06C718.665 89.7102 716.578 87.0353 711.229 87.0353H614.932Z" fill="white"/>
<path d="M577.697 111.109C581.121 95.06 572.133 87.0353 550.734 87.0353C529.335 87.0353 516.923 95.06 513.499 111.109L501.543 167.282H469.444L481.401 111.109C489.372 73.6608 514.757 54.9365 557.555 54.9365C600.353 54.9365 617.767 73.6608 609.796 111.109L597.839 167.282H565.74L570.876 143.208H514.703L521.524 111.109H577.697Z" fill="#E4FF14"/>
<path d="M413.673 167.282H381.574L398.667 87.0353H346.105L377 54.9365H489.346L458.451 87.0353H430.766L413.673 167.282Z" fill="#E4FF14"/>
<path d="M249.246 127.159C222.497 127.159 211.718 115.015 216.907 90.7267C221.989 66.8666 237.905 54.9365 264.654 54.9365H352.925L322.03 87.0353H257.833C252.483 87.0353 249.541 88.2658 249.006 90.7267C248.364 93.6156 250.718 95.06 256.067 95.06H304.216C330.964 95.06 341.825 106.99 336.796 130.85C331.606 155.138 315.637 167.282 288.888 167.282H200.617L231.512 135.183H295.709C301.059 135.183 304.055 133.739 304.697 130.85C305.178 128.389 302.744 127.159 297.395 127.159H249.246Z" fill="#E4FF14"/>
<path d="M216.506 54.9365L192.592 167.282H160.493L184.407 54.9365H216.506Z" fill="#E4FF14"/>
<path d="M116.358 167.282H76.2344L52 54.9365H89V90.0127H104.111L100.758 133.846L138.454 68.5928H121.549L126.997 54.9365H188.42L116.358 167.282Z" fill="#E4FF14"/>
</svg>
